<svg width="768" height="76" viewBox="0 0 768 76" fill="none" xmlns="http://www.w3.org/2000/svg">
<rect x="0.5" y="0.5" width="767" height="75" rx="1.5" stroke="#6D6E76" stroke-opacity="0.5"/>
<path d="M29.6364 40.3636H31.1818L32.4773 42.0682L32.8182 42.5227L34.75 45.0909H33.2045L31.9318 43.3864L31.6136 42.9545L29.6364 40.3636ZM35.2273 38.1818C35.2273 39.4091 35.0057 40.4697 34.5625 41.3636C34.1193 42.2576 33.5114 42.947 32.7386 43.4318C31.9659 43.9167 31.0833 44.1591 30.0909 44.1591C29.0985 44.1591 28.2159 43.9167 27.4432 43.4318C26.6705 42.947 26.0625 42.2576 25.6193 41.3636C25.1761 40.4697 24.9545 39.4091 24.9545 38.1818C24.9545 36.9545 25.1761 35.8939 25.6193 35C26.0625 34.1061 26.6705 33.4167 27.4432 32.9318C28.2159 32.447 29.0985 32.2045 30.0909 32.2045C31.0833 32.2045 31.9659 32.447 32.7386 32.9318C33.5114 33.4167 34.1193 34.1061 34.5625 35C35.0057 35.8939 35.2273 36.9545 35.2273 38.1818ZM33.8636 38.1818C33.8636 37.1742 33.6951 36.3239 33.358 35.6307C33.0246 34.9375 32.572 34.4129 32 34.0568C31.4318 33.7008 30.7955 33.5227 30.0909 33.5227C29.3864 33.5227 28.7481 33.7008 28.1761 34.0568C27.608 34.4129 27.1553 34.9375 26.8182 35.6307C26.4848 36.3239 26.3182 37.1742 26.3182 38.1818C26.3182 39.1894 26.4848 40.0398 26.8182 40.733C27.1553 41.4261 27.608 41.9508 28.1761 42.3068C28.7481 42.6629 29.3864 42.8409 30.0909 42.8409C30.7955 42.8409 31.4318 42.6629 32 42.3068C32.572 41.9508 33.0246 41.4261 33.358 40.733C33.6951 40.0398 33.8636 39.1894 33.8636 38.1818ZM42.9148 40.4318V35.2727H44.2557V44H42.9148V42.5227H42.8239C42.6193 42.9659 42.3011 43.3428 41.8693 43.6534C41.4375 43.9602 40.892 44.1136 40.233 44.1136C39.6875 44.1136 39.2027 43.9943 38.7784 43.7557C38.3542 43.5133 38.0208 43.1496 37.7784 42.6648C37.536 42.1761 37.4148 41.5606 37.4148 40.8182V35.2727H38.7557V40.7273C38.7557 41.3636 38.9337 41.8712 39.2898 42.25C39.6496 42.6288 40.108 42.8182 40.6648 42.8182C40.9981 42.8182 41.3371 42.733 41.6818 42.5625C42.0303 42.392 42.322 42.1307 42.5568 41.7784C42.7955 41.4261 42.9148 40.9773 42.9148 40.4318ZM50.3707 44.1818C49.5298 44.1818 48.8045 43.9962 48.1946 43.625C47.5885 43.25 47.1207 42.7273 46.7912 42.0568C46.4654 41.3826 46.3026 40.5985 46.3026 39.7045C46.3026 38.8106 46.4654 38.0227 46.7912 37.3409C47.1207 36.6553 47.5791 36.1212 48.1662 35.7386C48.7571 35.3523 49.4465 35.1591 50.2344 35.1591C50.6889 35.1591 51.1378 35.2348 51.581 35.3864C52.0241 35.5379 52.4276 35.7841 52.7912 36.125C53.1548 36.4621 53.4446 36.9091 53.6605 37.4659C53.8764 38.0227 53.9844 38.7083 53.9844 39.5227V40.0909H47.2571V38.9318H52.6207C52.6207 38.4394 52.5223 38 52.3253 37.6136C52.1321 37.2273 51.8556 36.9223 51.4957 36.6989C51.1397 36.4754 50.7192 36.3636 50.2344 36.3636C49.7003 36.3636 49.2382 36.4962 48.848 36.7614C48.4616 37.0227 48.1643 37.3636 47.956 37.7841C47.7476 38.2045 47.6435 38.6553 47.6435 39.1364V39.9091C47.6435 40.5682 47.7571 41.1269 47.9844 41.5852C48.2154 42.0398 48.5355 42.3864 48.9446 42.625C49.3537 42.8598 49.8291 42.9773 50.3707 42.9773C50.723 42.9773 51.0412 42.928 51.3253 42.8295C51.6132 42.7273 51.8613 42.5758 52.0696 42.375C52.2779 42.1705 52.4389 41.9167 52.5526 41.6136L53.848 41.9773C53.7116 42.4167 53.4825 42.803 53.1605 43.1364C52.8385 43.4659 52.4408 43.7235 51.9673 43.9091C51.4938 44.0909 50.9616 44.1818 50.3707 44.1818ZM56.0241 44V35.2727H57.3196V36.5909H57.4105C57.5696 36.1591 57.8575 35.8087 58.2741 35.5398C58.6908 35.2708 59.1605 35.1364 59.6832 35.1364C59.7817 35.1364 59.9048 35.1383 60.0526 35.142C60.2003 35.1458 60.312 35.1515 60.3878 35.1591V36.5227C60.3423 36.5114 60.2382 36.4943 60.0753 36.4716C59.9162 36.4451 59.7476 36.4318 59.5696 36.4318C59.1454 36.4318 58.7666 36.5208 58.4332 36.6989C58.1037 36.8731 57.8423 37.1155 57.6491 37.4261C57.4598 37.733 57.3651 38.0833 57.3651 38.4773V44H56.0241ZM63.1065 47.2727C62.8793 47.2727 62.6766 47.2538 62.4986 47.2159C62.3205 47.1818 62.1974 47.1477 62.1293 47.1136L62.4702 45.9318C62.7959 46.0152 63.0838 46.0455 63.3338 46.0227C63.5838 46 63.8054 45.8883 63.9986 45.6875C64.1955 45.4905 64.3755 45.1705 64.5384 44.7273L64.7884 44.0455L61.5611 35.2727H63.0156L65.4247 42.2273H65.5156L67.9247 35.2727H69.3793L65.6747 45.2727C65.508 45.7235 65.3016 46.0966 65.0554 46.392C64.8092 46.6913 64.5232 46.9129 64.1974 47.0568C63.8755 47.2008 63.5118 47.2727 63.1065 47.2727ZM75.831 44V32.3636H79.7628C80.6719 32.3636 81.4181 32.5189 82.0014 32.8295C82.5848 33.1364 83.0166 33.5587 83.2969 34.0966C83.5772 34.6345 83.7173 35.2462 83.7173 35.9318C83.7173 36.6174 83.5772 37.2254 83.2969 37.7557C83.0166 38.286 82.5866 38.7027 82.0071 39.0057C81.4276 39.3049 80.687 39.4545 79.7855 39.4545H76.6037V38.1818H79.7401C80.3613 38.1818 80.8613 38.0909 81.2401 37.9091C81.6226 37.7273 81.8991 37.4697 82.0696 37.1364C82.2438 36.7992 82.331 36.3977 82.331 35.9318C82.331 35.4659 82.2438 35.0587 82.0696 34.7102C81.8954 34.3617 81.617 34.0928 81.2344 33.9034C80.8518 33.7102 80.3461 33.6136 79.7173 33.6136H77.2401V44H75.831ZM81.3082 38.7727L84.1719 44H82.5355L79.7173 38.7727H81.3082ZM89.4489 44.1818C88.608 44.1818 87.8826 43.9962 87.2727 43.625C86.6667 43.25 86.1989 42.7273 85.8693 42.0568C85.5436 41.3826 85.3807 40.5985 85.3807 39.7045C85.3807 38.8106 85.5436 38.0227 85.8693 37.3409C86.1989 36.6553 86.6572 36.1212 87.2443 35.7386C87.8352 35.3523 88.5246 35.1591 89.3125 35.1591C89.767 35.1591 90.2159 35.2348 90.6591 35.3864C91.1023 35.5379 91.5057 35.7841 91.8693 36.125C92.233 36.4621 92.5227 36.9091 92.7386 37.4659C92.9545 38.0227 93.0625 38.7083 93.0625 39.5227V40.0909H86.3352V38.9318H91.6989C91.6989 38.4394 91.6004 38 91.4034 37.6136C91.2102 37.2273 90.9337 36.9223 90.5739 36.6989C90.2178 36.4754 89.7973 36.3636 89.3125 36.3636C88.7784 36.3636 88.3163 36.4962 87.9261 36.7614C87.5398 37.0227 87.2424 37.3636 87.0341 37.7841C86.8258 38.2045 86.7216 38.6553 86.7216 39.1364V39.9091C86.7216 40.5682 86.8352 41.1269 87.0625 41.5852C87.2936 42.0398 87.6136 42.3864 88.0227 42.625C88.4318 42.8598 88.9072 42.9773 89.4489 42.9773C89.8011 42.9773 90.1193 42.928 90.4034 42.8295C90.6913 42.7273 90.9394 42.5758 91.1477 42.375C91.3561 42.1705 91.517 41.9167 91.6307 41.6136L92.9261 41.9773C92.7898 42.4167 92.5606 42.803 92.2386 43.1364C91.9167 43.4659 91.5189 43.7235 91.0455 43.9091C90.572 44.0909 90.0398 44.1818 89.4489 44.1818ZM96.4432 32.3636V44H95.1023V32.3636H96.4432ZM101.467 44.2045C100.914 44.2045 100.412 44.1004 99.9616 43.892C99.5109 43.6799 99.1529 43.375 98.8878 42.9773C98.6226 42.5758 98.4901 42.0909 98.4901 41.5227C98.4901 41.0227 98.5885 40.6174 98.7855 40.3068C98.9825 39.9924 99.2457 39.7462 99.5753 39.5682C99.9048 39.3902 100.268 39.2576 100.666 39.1705C101.068 39.0795 101.471 39.0076 101.876 38.9545C102.407 38.8864 102.837 38.8352 103.166 38.8011C103.5 38.7633 103.742 38.7008 103.893 38.6136C104.049 38.5265 104.126 38.375 104.126 38.1591V38.1136C104.126 37.553 103.973 37.1174 103.666 36.8068C103.363 36.4962 102.903 36.3409 102.286 36.3409C101.645 36.3409 101.143 36.4811 100.78 36.7614C100.416 37.0417 100.161 37.3409 100.013 37.6591L98.7401 37.2045C98.9673 36.6742 99.2704 36.2614 99.6491 35.9659C100.032 35.6667 100.448 35.4583 100.899 35.3409C101.354 35.2197 101.801 35.1591 102.24 35.1591C102.52 35.1591 102.842 35.1932 103.206 35.2614C103.573 35.3258 103.928 35.4602 104.268 35.6648C104.613 35.8693 104.899 36.178 105.126 36.5909C105.354 37.0038 105.467 37.5568 105.467 38.25V44H104.126V42.8182H104.058C103.967 43.0076 103.816 43.2102 103.604 43.4261C103.392 43.642 103.109 43.8258 102.757 43.9773C102.405 44.1288 101.975 44.2045 101.467 44.2045ZM101.672 43C102.202 43 102.649 42.8958 103.013 42.6875C103.38 42.4792 103.657 42.2102 103.842 41.8807C104.032 41.5511 104.126 41.2045 104.126 40.8409V39.6136C104.07 39.6818 103.945 39.7443 103.751 39.8011C103.562 39.8542 103.342 39.9015 103.092 39.9432C102.846 39.9811 102.606 40.0152 102.371 40.0455C102.14 40.072 101.952 40.0947 101.808 40.1136C101.46 40.1591 101.134 40.233 100.831 40.3352C100.532 40.4337 100.289 40.5833 100.104 40.7841C99.9219 40.9811 99.831 41.25 99.831 41.5909C99.831 42.0568 100.003 42.4091 100.348 42.6477C100.696 42.8826 101.138 43 101.672 43ZM111.71 35.2727V36.4091H107.188V35.2727H111.71ZM108.506 33.1818H109.847V41.5C109.847 41.8788 109.902 42.1629 110.011 42.3523C110.125 42.5379 110.269 42.6629 110.443 42.7273C110.621 42.7879 110.809 42.8182 111.006 42.8182C111.153 42.8182 111.275 42.8106 111.369 42.7955C111.464 42.7765 111.54 42.7614 111.597 42.75L111.869 43.9545C111.778 43.9886 111.652 44.0227 111.489 44.0568C111.326 44.0947 111.119 44.1136 110.869 44.1136C110.491 44.1136 110.119 44.0322 109.756 43.8693C109.396 43.7064 109.097 43.4583 108.858 43.125C108.623 42.7917 108.506 42.3712 108.506 41.8636V33.1818ZM117.293 44.1818C116.452 44.1818 115.726 43.9962 115.116 43.625C114.51 43.25 114.043 42.7273 113.713 42.0568C113.387 41.3826 113.224 40.5985 113.224 39.7045C113.224 38.8106 113.387 38.0227 113.713 37.3409C114.043 36.6553 114.501 36.1212 115.088 35.7386C115.679 35.3523 116.368 35.1591 117.156 35.1591C117.611 35.1591 118.06 35.2348 118.503 35.3864C118.946 35.5379 119.349 35.7841 119.713 36.125C120.077 36.4621 120.366 36.9091 120.582 37.4659C120.798 38.0227 120.906 38.7083 120.906 39.5227V40.0909H114.179V38.9318H119.543C119.543 38.4394 119.444 38 119.247 37.6136C119.054 37.2273 118.777 36.9223 118.418 36.6989C118.062 36.4754 117.641 36.3636 117.156 36.3636C116.622 36.3636 116.16 36.4962 115.77 36.7614C115.384 37.0227 115.086 37.3636 114.878 37.7841C114.67 38.2045 114.565 38.6553 114.565 39.1364V39.9091C114.565 40.5682 114.679 41.1269 114.906 41.5852C115.137 42.0398 115.457 42.3864 115.866 42.625C116.276 42.8598 116.751 42.9773 117.293 42.9773C117.645 42.9773 117.963 42.928 118.247 42.8295C118.535 42.7273 118.783 42.5758 118.991 42.375C119.2 42.1705 119.361 41.9167 119.474 41.6136L120.77 41.9773C120.634 42.4167 120.404 42.803 120.082 43.1364C119.76 43.4659 119.363 43.7235 118.889 43.9091C118.416 44.0909 117.884 44.1818 117.293 44.1818ZM126.241 44.1818C125.514 44.1818 124.872 43.9981 124.315 43.6307C123.759 43.2595 123.323 42.7367 123.009 42.0625C122.694 41.3845 122.537 40.5833 122.537 39.6591C122.537 38.7424 122.694 37.947 123.009 37.2727C123.323 36.5985 123.76 36.0777 124.321 35.7102C124.882 35.3428 125.529 35.1591 126.264 35.1591C126.832 35.1591 127.281 35.2538 127.611 35.4432C127.944 35.6288 128.198 35.8409 128.372 36.0795C128.55 36.3144 128.688 36.5076 128.787 36.6591H128.901V32.3636H130.241V44H128.946V42.6591H128.787C128.688 42.8182 128.548 43.0189 128.366 43.2614C128.185 43.5 127.925 43.714 127.588 43.9034C127.251 44.089 126.802 44.1818 126.241 44.1818ZM126.423 42.9773C126.961 42.9773 127.416 42.8371 127.787 42.5568C128.158 42.2727 128.44 41.8807 128.634 41.3807C128.827 40.8769 128.923 40.2955 128.923 39.6364C128.923 38.9848 128.829 38.4148 128.639 37.9261C128.45 37.4337 128.17 37.0511 127.798 36.7784C127.427 36.5019 126.969 36.3636 126.423 36.3636C125.855 36.3636 125.382 36.5095 125.003 36.8011C124.628 37.089 124.346 37.4811 124.156 37.9773C123.971 38.4697 123.878 39.0227 123.878 39.6364C123.878 40.2576 123.973 40.822 124.162 41.3295C124.355 41.8333 124.639 42.2348 125.014 42.5341C125.393 42.8295 125.863 42.9773 126.423 42.9773Z" fill="#232536"/>
<path d="M697 36L701 40L705 36" stroke="black" stroke-width="2" stroke-linecap="square"/>
</svg>
